<?xml version="1.0" encoding="UTF-8"?>
<svg width="470px" height="470px" viewBox="0 0 470 470" version="1.1" xmlns="http://www.w3.org/2000/svg" xmlns:xlink="http://www.w3.org/1999/xlink">
    <!-- Generator: Sketch 52.6 (67491) - http://www.bohemiancoding.com/sketch -->
    <title>Group</title>
    <desc>Created with Sketch.</desc>
    <defs>
        <circle id="path-1" cx="235.382114" cy="235.382114" r="218.569106"></circle>
    </defs>
    <g id="Page-1" stroke="none" stroke-width="1" fill="none" fill-rule="evenodd">
        <g id="Artboard" transform="translate(-175.000000, -80.000000)">
            <g id="Group" transform="translate(175.000000, 80.000000)">
                <circle id="Window" fill="#0A3D62" fill-rule="nonzero" cx="235" cy="235" r="235"></circle>
                <mask id="mask-2" fill="white">
                    <use xlink:href="#path-1"></use>
                </mask>
                <use id="Pane" fill="#192A56" fill-rule="nonzero" xlink:href="#path-1"></use>
                <g id="Astronaut" mask="url(#mask-2)">
                    <g transform="translate(46.617886, 64.959350)">
                        <path d="M132.081301,158.195122 L240.861789,158.195122 C281.73086,158.195122 314.861789,191.32605 314.861789,232.195122 L314.861789,234.617886 L314.861789,382.99187 C314.861789,438.220345 270.090264,482.99187 214.861789,482.99187 L158.081301,482.99187 C102.852826,482.99187 58.0813008,438.220345 58.0813008,382.99187 L58.0813008,232.195122 C58.0813008,191.32605 91.2122293,158.195122 132.081301,158.195122 Z" id="Gear" fill="#ECF0F1" fill-rule="evenodd"></path>
                        <rect id="Torso" fill="#F5FBFF" fill-rule="evenodd" x="84.0650407" y="175.00813" width="204.813008" height="361.479675" rx="100"></rect>
                        <g id="Helmet" stroke-width="1" fill="none" fill-rule="evenodd" transform="translate(69.544715, 0.000000)">
                            <path d="M117.153709,217.548145 C184.685113,217.548145 234.128303,182.929778 234.128303,115.398374 C234.128303,47.8669704 184.595555,0.38808435 117.064151,0.38808435 C49.5327479,0.38808435 0,47.8669704 0,115.398374 C0,182.929778 49.6223058,217.548145 117.153709,217.548145 Z" id="Head" fill="#E1E9DD"></path>
                            <path d="M116.926829,204.708524 C172.640237,204.708524 217.804878,171.87601 217.804878,116.162602 C217.804878,60.4491937 172.640237,59.9291794 116.926829,59.9291794 C61.2134213,59.9291794 16.0487805,60.4491937 16.0487805,116.162602 C16.0487805,171.87601 61.2134213,204.708524 116.926829,204.708524 Z" id="Screen" fill="#6FADBC"></path>
                            <path d="M116.926829,194.837205 C165.042954,194.837205 204.04878,166.481852 204.04878,118.365727 C204.04878,70.2496016 165.042954,69.8004983 116.926829,69.8004983 C68.8107042,69.8004983 29.804878,70.2496016 29.804878,118.365727 C29.804878,166.481852 68.8107042,194.837205 116.926829,194.837205 Z" id="Visor" fill="#213D55"></path>
                        </g>
                        <path d="M289.139618,212.754876 L331.073596,228.730291 C334.5728,230.063368 337.801534,232.019385 340.603375,234.503578 C354.934381,247.20986 361.934371,274.622522 361.603343,316.741566 C361.592973,318.061053 361.555205,319.378609 361.555654,320.698203 C361.568833,359.476271 360.207461,390.217199 357.47154,412.920989 L357.471534,412.920988 C354.163799,440.369922 330.873348,461.022252 303.225833,461.022252 L299.799522,461.022252 C282.678695,461.022252 268.799522,447.14308 268.799522,430.022252 L268.799522,226.772128 C268.799522,218.487857 275.515251,211.772128 283.799522,211.772128 C285.624516,211.772128 287.434191,212.105166 289.139618,212.754876 Z" id="Right-Arm" fill="#F5FBFF" fill-rule="evenodd" transform="translate(315.206886, 336.397190) rotate(-2.000000) translate(-315.206886, -336.397190) "></path>
                        <path d="M24.8094371,212.559867 L66.7434151,228.535283 C70.2426188,229.86836 73.4713536,231.824377 76.2731941,234.308569 C90.6042005,247.014851 97.6041899,274.427514 97.2731623,316.546557 C97.262792,317.866045 97.2250245,319.183601 97.225473,320.503195 C97.2386517,359.281262 95.8772806,390.022191 93.1413596,412.725981 L93.1413527,412.72598 C89.8336179,440.174914 66.5431669,460.827244 38.895652,460.827244 L35.4693414,460.827244 C18.3485142,460.827244 4.46934145,446.948071 4.46934145,429.827244 L4.46934145,226.57712 C4.46934145,218.292849 11.1850702,211.57712 19.4693414,211.57712 C21.2943355,211.57712 23.1040102,211.910158 24.8094371,212.559867 Z" id="Left-Arm" fill="#F5FBFF" fill-rule="evenodd" transform="translate(50.876857, 336.202182) scale(-1, 1) rotate(-2.000000) translate(-50.876857, -336.202182) "></path>
                        <path d="M130.755943,321.788969 C155.975566,328.328347 174.420063,331.598036 186.089435,331.598036 C197.758806,331.598036 216.203302,328.328347 241.422922,321.78897 L241.422921,321.788966 C245.699763,320.679993 250.065829,323.248058 251.174802,327.5249 C251.344844,328.180681 251.430899,328.855406 251.430899,329.532874 L251.430899,412.761985 C251.430899,417.180263 247.849177,420.761985 243.430899,420.761985 L128.747967,420.761985 C124.329689,420.761985 120.747967,417.180263 120.747967,412.761985 C120.747967,412.761985 120.747967,412.761985 120.747967,412.761985 L120.747974,329.532869 C120.747974,325.114593 124.329695,321.532872 128.747972,321.532873 C129.425439,321.532873 130.100163,321.618927 130.755943,321.788969 Z" id="Rectangle" fill="#40739E" fill-rule="nonzero"></path>
                    </g>
                </g>
            </g>
        </g>
    </g>
</svg>