
<svg width="311px" height="72px" viewBox="0 0 311 72" version="1.1" xmlns="http://www.w3.org/2000/svg" xmlns:xlink="http://www.w3.org/1999/xlink">
    <g id="Page-1" stroke="none" stroke-width="1" fill="none" fill-rule="evenodd">
        <path d="M44.6289062,0.8828125 L53.2226562,0.8828125 L53.2226562,71 L46.8261719,71 L46.8261719,53.4707031 L18.9941406,53.4707031 L7.91015625,71 L0.29296875,71 L44.6289062,0.8828125 Z M46.8261719,9.4765625 L23.046875,47.0253906 L46.8261719,47.0253906 L46.8261719,9.4765625 Z M61.8652344,0.8828125 L68.3105469,0.8828125 L68.3105469,64.5546875 L100.878906,64.5546875 L100.878906,71 L61.8652344,71 L61.8652344,0.8828125 Z M146.972656,0.8828125 L155.566406,0.8828125 L155.566406,71 L149.169922,71 L149.169922,53.4707031 L121.337891,53.4707031 L110.253906,71 L102.636719,71 L146.972656,0.8828125 Z M149.169922,9.4765625 L125.390625,47.0253906 L149.169922,47.0253906 L149.169922,9.4765625 Z M183.251953,71.6835938 C182.828774,71.6835938 182.405601,71.6673179 181.982422,71.6347656 C177.45766,71.4394521 173.307311,70.251313 169.53125,68.0703125 C165.234354,65.5963418 162.320971,62.2923384 160.791016,58.1582031 L166.845703,55.9609375 C167.887375,58.7604307 170.003239,61.0227778 173.193359,62.7480469 C175.992853,64.2454502 179.020166,65.07552 182.275391,65.2382812 C187.255884,65.4335947 191.422509,64.1803521 194.775391,61.4785156 C197.770197,59.0696494 199.348958,56.2376465 199.511719,52.9824219 C199.772137,46.8625996 194.173234,42.1914224 182.714844,38.96875 C174.446573,36.6575405 168.538429,33.4349165 164.990234,29.3007813 C162.288398,26.1432134 161.018879,22.5950718 161.181641,18.65625 C161.474611,11.9830396 164.306614,7.00262061 169.677734,3.71484375 C173.942079,1.11066406 179.101532,-0.0449233398 185.15625,0.248046875 C192.447953,0.573569336 198.274718,3.08005469 202.636719,7.76757813 L197.900391,12.1621094 C194.742823,8.74412354 190.397163,6.90494922 184.863281,6.64453125 C180.110653,6.44921777 176.171891,7.29556348 173.046875,9.18359375 C169.628889,11.2994897 167.822267,14.5546655 167.626953,18.9492188 C167.366535,24.938832 172.965438,29.5449058 184.423828,32.7675781 C192.692099,35.0787876 198.600243,38.3176875 202.148438,42.484375 C204.850274,45.6744951 206.119792,49.2551885 205.957031,53.2265625 C205.696613,58.4674741 203.320335,62.8945132 198.828125,66.5078125 C194.531229,69.9583506 189.339223,71.6835938 183.251953,71.6835938 Z M248.193359,0.8828125 L256.445312,0.8828125 L228.417969,35.7949219 L257.373047,71 L249.072266,71 L224.267578,40.921875 L218.359375,48.2949219 L218.359375,70.9511719 L211.914062,70.9511719 L211.914062,0.931640625 L218.359375,0.931640625 L218.359375,38.0410156 L248.193359,0.8828125 Z M302.148438,0.8828125 L310.742188,0.8828125 L310.742188,71 L304.345703,71 L304.345703,53.4707031 L276.513672,53.4707031 L265.429688,71 L257.8125,71 L302.148438,0.8828125 Z M304.345703,9.4765625 L280.566406,47.0253906 L304.345703,47.0253906 L304.345703,9.4765625 Z" id="Alaska" fill="#50514F"></path>
    </g>
</svg>
